<svg aria-hidden="true" style="position: absolute; width: 0; height: 0; overflow: hidden;" version="1.1" xmlns="http://www.w3.org/2000/svg" xmlns:xlink="http://www.w3.org/1999/xlink">
<defs>
  <symbol id="icon-burger" viewBox="0 0 32 32">
    <path 
      fill="url(#linear_gradient_main)"
      d="M21.805 8.117l-15.031 0.001c-0.671-0-1.189 0.126-1.195-0.72-0.008-1.053-0.276-1.534 0.953-1.535l18.75-0.001c1.437-0 1.17 0.32 1.173 1.578 0.001 0.685-0.463 0.678-1.023 0.678l-3.626 0z">
    </path>
    <path
      fill="url(#linear_gradient_main)"
      d="M25.91 16.84l-18.931 0.001c-0.309 0-0.917 0.077-1.181-0.106-0.332-0.23-0.217-0.644-0.218-0.986-0.003-0.497-0.169-1.137 0.518-1.229 0.435-0.010 0.872-0 1.307-0l17.326-0c0.349 0 1.185-0.087 1.47 0.129s0.206 0.534 0.206 0.84c-0 0.482 0.181 1.253-0.496 1.352z">
    </path>
    <path
      fill="url(#linear_gradient_main)"
      d="M7.273 25.554c-0.308 0.001-1.012 0.035-1.273-0.019-0.553-0.114-0.42-0.881-0.424-1.304-0.010-1.175 0.304-0.996 1.298-0.997l18.519-0.003c1.088-0.016 1.009 0.22 1.012 1.216 0.004 1.18-0.106 1.108-1.264 1.107l-17.868-0.001z">
    </path>
  </symbol>
  <symbol id="icon-icon-x" viewBox="0 0 32 32">
    <path fill="url(#linear_gradient_main)" d="M14.716 15.706l-8.065-8.056c-0.529-0.522-1.674-1.218-1.12-2.096 0.157-0.248 0.397-0.379 0.677-0.443 0.645-0.061 0.995 0.49 1.404 0.897l8.389 8.386c0.93-1.022 2.072-2.076 3.059-3.057l5.812-5.81c0.715-0.721 1.737-0.366 1.719 0.556-0.011 0.562-0.639 0.987-1.003 1.36-0.823 0.844-1.675 1.662-2.513 2.491l-3.578 3.575c-0.735 0.736-1.466 1.476-2.216 2.196l8.43 8.439c0.448 0.439 1.168 0.888 0.779 1.613-0.145 0.269-0.398 0.429-0.683 0.518-0.528 0.078-0.785-0.227-1.127-0.585-0.997-1.044-2.086-2.049-3.106-3.085l-5.573-5.57c-0.166 0.135-0.311 0.311-0.464 0.463l-8.063 8.058c-0.314 0.316-0.593 0.725-1.079 0.745-0.503 0.020-0.981-0.431-0.989-0.936-0.008-0.537 0.576-0.932 0.914-1.275l8.396-8.385z"></path>
  </symbol>
  <linearGradient id="linear_gradient_main" x1="0%" y1="0%" x2="100%" y2="0%" gradientUnits="userSpaceOnUse">
    <stop offset="0%" stop-color="#F97316"/>
    <stop offset="100%" stop-color="#EC4899"/>
  </linearGradient>
</defs>
</svg>
